<svg width="240" height="45" viewBox="0 0 240 45" fill="none" xmlns="http://www.w3.org/2000/svg">
<path d="M0.504 35V1.4H13.848C15.896 1.4 17.72 1.816 19.32 2.648C20.952 3.448 22.216 4.6 23.112 6.104C24.04 7.576 24.504 9.352 24.504 11.432V12.056C24.504 14.136 24.024 15.928 23.064 17.432C22.136 18.936 20.872 20.088 19.272 20.888C17.672 21.688 15.864 22.088 13.848 22.088H5.688V35H0.504ZM5.688 17.384H13.32C15.144 17.384 16.6 16.904 17.688 15.944C18.776 14.984 19.32 13.672 19.32 12.008V11.528C19.32 9.832 18.776 8.504 17.688 7.544C16.6 6.584 15.144 6.104 13.32 6.104H5.688V17.384ZM36.3983 35.672C34.7023 35.672 33.1823 35.384 31.8383 34.808C30.5263 34.232 29.4703 33.384 28.6703 32.264C27.9023 31.144 27.5183 29.784 27.5183 28.184C27.5183 26.552 27.9023 25.208 28.6703 24.152C29.4703 23.064 30.5423 22.248 31.8863 21.704C33.2623 21.16 34.8143 20.888 36.5423 20.888H43.7423V19.352C43.7423 17.976 43.3263 16.872 42.4943 16.04C41.6623 15.208 40.3823 14.792 38.6543 14.792C36.9583 14.792 35.6623 15.192 34.7663 15.992C33.8703 16.792 33.2783 17.832 32.9903 19.112L28.3823 17.624C28.7663 16.344 29.3743 15.192 30.2063 14.168C31.0703 13.112 32.2063 12.264 33.6143 11.624C35.0223 10.984 36.7183 10.664 38.7023 10.664C41.7743 10.664 44.1903 11.448 45.9503 13.016C47.7103 14.584 48.5903 16.808 48.5903 19.688V29.432C48.5903 30.392 49.0383 30.872 49.9343 30.872H51.9503V35H48.2543C47.1343 35 46.2223 34.712 45.5183 34.136C44.8143 33.56 44.4623 32.776 44.4623 31.784V31.64H43.7423C43.4863 32.12 43.1023 32.68 42.5903 33.32C42.0783 33.96 41.3263 34.52 40.3343 35C39.3423 35.448 38.0303 35.672 36.3983 35.672ZM37.1183 31.592C39.1023 31.592 40.7023 31.032 41.9183 29.912C43.1343 28.76 43.7423 27.192 43.7423 25.208V24.728H36.8303C35.5183 24.728 34.4623 25.016 33.6623 25.592C32.8623 26.136 32.4622 26.952 32.4622 28.04C32.4622 29.128 32.8783 29.992 33.7103 30.632C34.5423 31.272 35.6783 31.592 37.1183 31.592ZM56.7574 35V11.336H61.6054V14.12H62.3734C62.7574 13.128 63.3654 12.408 64.1974 11.96C65.0614 11.48 66.1174 11.24 67.3654 11.24H70.1974V15.704H67.1734C65.5734 15.704 64.2614 16.152 63.2374 17.048C62.2134 17.912 61.7014 19.256 61.7014 21.08V35H56.7574ZM75.3199 35V1.4H80.2639V20.552H81.0319L90.3439 11.336H96.9199L84.9679 22.808L97.3039 35H90.7759L81.0319 25.16H80.2639V35H75.3199ZM150.322 35.672C147.794 35.672 145.554 35.224 143.602 34.328C141.65 33.432 140.114 32.12 138.994 30.392C137.906 28.632 137.362 26.504 137.362 24.008V22.808H142.498V24.008C142.498 26.376 143.202 28.152 144.61 29.336C146.05 30.52 147.954 31.112 150.322 31.112C152.722 31.112 154.53 30.616 155.746 29.624C156.962 28.6 157.57 27.288 157.57 25.688C157.57 24.632 157.282 23.768 156.706 23.096C156.13 22.424 155.314 21.896 154.258 21.512C153.202 21.096 151.938 20.712 150.466 20.36L148.69 19.928C146.546 19.416 144.674 18.792 143.074 18.056C141.506 17.288 140.29 16.28 139.426 15.032C138.562 13.784 138.13 12.184 138.13 10.232C138.13 8.248 138.61 6.552 139.57 5.144C140.562 3.736 141.922 2.648 143.65 1.88C145.378 1.112 147.41 0.727998 149.746 0.727998C152.082 0.727998 154.162 1.128 155.986 1.928C157.842 2.728 159.298 3.912 160.354 5.48C161.41 7.048 161.938 9.016 161.938 11.384V13.112H156.802V11.384C156.802 9.944 156.498 8.776 155.89 7.88C155.314 6.984 154.498 6.328 153.442 5.912C152.386 5.496 151.154 5.288 149.746 5.288C147.698 5.288 146.098 5.72 144.946 6.584C143.826 7.416 143.266 8.584 143.266 10.088C143.266 11.112 143.506 11.96 143.986 12.632C144.498 13.272 145.234 13.8 146.194 14.216C147.154 14.632 148.354 15 149.794 15.32L151.57 15.752C153.746 16.232 155.666 16.856 157.33 17.624C158.994 18.36 160.306 19.368 161.266 20.648C162.226 21.928 162.706 23.576 162.706 25.592C162.706 27.608 162.194 29.368 161.17 30.872C160.178 32.376 158.754 33.56 156.898 34.424C155.042 35.256 152.85 35.672 150.322 35.672ZM177.172 35C175.732 35 174.58 34.568 173.716 33.704C172.884 32.84 172.468 31.688 172.468 30.248V15.512H165.94V11.336H172.468V3.512H177.412V11.336H184.468V15.512H177.412V29.384C177.412 30.344 177.86 30.824 178.756 30.824H183.7V35H177.172ZM197.573 35.672C195.877 35.672 194.357 35.384 193.013 34.808C191.701 34.232 190.645 33.384 189.845 32.264C189.077 31.144 188.693 29.784 188.693 28.184C188.693 26.552 189.077 25.208 189.845 24.152C190.645 23.064 191.717 22.248 193.061 21.704C194.437 21.16 195.989 20.888 197.717 20.888H204.917V19.352C204.917 17.976 204.501 16.872 203.669 16.04C202.837 15.208 201.557 14.792 199.829 14.792C198.133 14.792 196.837 15.192 195.941 15.992C195.045 16.792 194.453 17.832 194.165 19.112L189.557 17.624C189.941 16.344 190.549 15.192 191.381 14.168C192.245 13.112 193.381 12.264 194.789 11.624C196.197 10.984 197.893 10.664 199.877 10.664C202.949 10.664 205.365 11.448 207.125 13.016C208.885 14.584 209.765 16.808 209.765 19.688V29.432C209.765 30.392 210.213 30.872 211.109 30.872H213.125V35H209.429C208.309 35 207.397 34.712 206.693 34.136C205.989 33.56 205.637 32.776 205.637 31.784V31.64H204.917C204.661 32.12 204.277 32.68 203.765 33.32C203.253 33.96 202.501 34.52 201.509 35C200.517 35.448 199.205 35.672 197.573 35.672ZM198.293 31.592C200.277 31.592 201.877 31.032 203.093 29.912C204.309 28.76 204.917 27.192 204.917 25.208V24.728H198.005C196.693 24.728 195.637 25.016 194.837 25.592C194.037 26.136 193.637 26.952 193.637 28.04C193.637 29.128 194.053 29.992 194.885 30.632C195.717 31.272 196.853 31.592 198.293 31.592ZM220.059 44.6V40.28H233.259C234.155 40.28 234.603 39.8 234.603 38.84V31.544H233.835C233.547 32.184 233.099 32.808 232.491 33.416C231.915 33.992 231.131 34.472 230.139 34.856C229.147 35.24 227.899 35.432 226.395 35.432C224.603 35.432 223.003 35.032 221.595 34.232C220.187 33.432 219.083 32.296 218.283 30.824C217.483 29.352 217.083 27.608 217.083 25.592V11.336H222.027V25.208C222.027 27.256 222.539 28.776 223.563 29.768C224.587 30.728 226.011 31.208 227.835 31.208C229.851 31.208 231.467 30.536 232.683 29.192C233.931 27.848 234.555 25.896 234.555 23.336V11.336H239.499V39.848C239.499 41.288 239.067 42.44 238.203 43.304C237.371 44.168 236.219 44.6 234.747 44.6H220.059Z" fill="#102B30"/>
<path d="M104.248 35V1.4H114.232L123.352 31.544H124.12V1.4H129.256V35H119.272L110.152 4.808H109.384V35H104.248Z" fill="#49958B"/>
</svg>
